<?xml version="1.0" encoding="utf-8"?>
<!-- Generator: Adobe Illustrator 26.0.1, SVG Export Plug-In . SVG Version: 6.00 Build 0)  -->
<svg version="1.1" id="AF_Logo" xmlns="http://www.w3.org/2000/svg" xmlns:xlink="http://www.w3.org/1999/xlink" x="0px" y="0px"
	 viewBox="0 0 415.3 405.9" style="enable-background:new 0 0 415.3 405.9;" xml:space="preserve">
<style type="text/css">
	.st0{fill:#FFFFFF;}
</style>
<path class="st0" d="M411.6,0l-72.2,0.1h-1c-13.4,0.4-26.7,1.7-40,3.9c-1.7,0.3-3,1.8-3,3.6v294c0,2-1.6,3.6-3.6,3.6h-11.6v-293
	c0-2.7-1.8-4.6-3.6-3.8C261.9,15.2,205,45.5,148,127.1c-33.8,48.4-50.7,119.8-59.1,178H3.6c-2,0-3.6,1.6-3.6,3.6v1.9
	c0,2,1.5,3.6,3.5,3.7c0,0,0.1,0,0.1,0h84c-3.8,28.6-6.2,57.3-7,86.1c0,2.2,1.2,4.1,2.8,4.1h50.7c1.5,0,2.8-1.8,2.8-4
	c0.3-28.9,2.8-57.7,7.5-86.2h83.4l-0.1,87.7c0,2.2,1.2,4,2.8,4h47c1.5,0,2.8-1.8,2.8-4v-87.7h64.2c2,0,3.6-1.6,3.6-3.6c0,0,0,0,0,0
	V172.5c0-2,1.6-3.6,3.6-3.6c0.3,0,0.5,0,0.8,0.1c46.5,10.8,48.5,52.7,47.9,65.5c-0.1,2,1.5,3.7,3.5,3.7c0,0,0.1,0,0.1,0h0.5
	c2,0,3.6-1.6,3.6-3.6V97c0-2-1.6-3.6-3.6-3.6c-2,0-3.6,1.6-3.6,3.6c-1.4,42.7-27.7,59.2-48.4,65.5c-1.9,0.6-3.9-0.5-4.5-2.4
	c-0.1-0.3-0.1-0.7-0.1-1V5c0-2,1.7-3.6,3.7-3.6c0.2,0,0.3,0,0.5,0c53.6,8,55.8,53.5,55.2,66.9c-0.1,2,1.5,3.7,3.5,3.7
	c0,0,0.1,0,0.1,0h0.5c2,0,3.6-1.6,3.6-3.6V3.6C415.3,1.6,413.7,0,411.6,0C411.7,0,411.6,0,411.6,0z M146,305.2
	c10.3-55.8,31.9-122.9,77.6-166.8c1.9-1.8,4.3,0.1,4.4,3.3l-0.2,163.6H146z"/>
<circle class="st0" cx="385.1" cy="382.2" r="23"/>
</svg>
