<?xml version="1.0" encoding="utf-8"?>
<!-- Generator: Adobe Illustrator 26.0.1, SVG Export Plug-In . SVG Version: 6.00 Build 0)  -->
<svg version="1.1" xmlns="http://www.w3.org/2000/svg" xmlns:xlink="http://www.w3.org/1999/xlink" x="0px" y="0px"
	 viewBox="0 0 790 790" style="enable-background:new 0 0 790 790;" xml:space="preserve">
<style type="text/css">
	.st0{display:none;}
	.st1{display:inline;}
	.st2{fill:#FFFFFF;}
</style>
<g id="Calque_1" class="st0">
	<g class="st1">
		<path class="st2" d="M60,316.2c0.3-0.8,1.1-1.6,1.1-2.5c0.2-5.2,0.2-10.6,0.5-15.9c0.3-4.4,0.8-8.8,1.3-13.1
			c0.3-2.5,0.7-4.9,1.1-7.2c0.7-2.9,1.5-6.1,2.3-9c0.5-1.8,0.8-3.4,1.3-5.2c0.7-2.6,1.1-5.2,1.8-7.7c0.7-2.6,1.3-5.1,2.1-7.7
			c0-0.3,0.2-0.5,0.2-0.8c0.5-1.8,1-3.6,1.5-5.4c1.3-4.1,2.6-8.2,4.1-12.1c1.8-4.7,3.8-9.3,5.9-13.9c2.5-5.4,5.1-10.8,7.9-16.2
			c2.3-4.3,4.7-8.5,7.2-12.6c2.5-4.3,5.1-8.5,7.7-12.6c2.1-3.1,4.4-5.9,6.7-8.8c3.3-4.3,6.5-8.7,10-12.9c1.3-1.8,2.9-3.3,4.4-4.9
			c3.3-3.6,6.7-7.4,10.2-10.8c1.8-1.8,3.8-3.3,5.6-5.1c3.3-2.9,6.2-6.2,9.7-9c4.6-3.8,9.3-7.2,14.1-10.8c3.8-2.9,7.7-5.9,11.6-8.5
			c2.9-2,6.2-3.6,9.3-5.6c4.7-2.8,9.2-5.9,14.2-8c3.9-1.8,7.7-4.1,11.6-5.9c3.8-1.6,7.5-2.9,11.3-4.6c1.5-0.7,2.9-1.5,4.4-2.1
			c1.5-0.7,2.9-1,4.4-1.5c3.4-1.3,7-2.6,10.5-3.8c1.5-0.5,3.1-0.7,4.7-1.1c2.6-0.7,5.2-1.3,7.9-2c2.6-0.7,5.1-1.3,7.7-2
			c2.8-0.7,5.6-1.3,8.5-2c3.9-0.8,7.9-1.5,11.8-2.1c1.8-0.3,3.6-0.2,5.4-0.3c1.6-0.2,3.1-0.7,4.7-1c0.8-0.2,1.5-0.3,2.3-0.3
			c5.1,0,10.2,0,15.1-0.2c3.1-0.2,6.1-1.1,9-0.8c8.8,1,17.7,1,26.5,1.1c3.9,2.5,8.8,0.5,12.9,2.5c0.2,0,0.3,0,0.3,0
			c3.8,0.5,7.5,0.8,11.3,1.5c2.3,0.3,4.4,1.1,6.7,1.8c1,0.3,2.1,0.5,3.1,0.8c2.8,0.8,5.4,1.5,8.2,2.3c2,0.5,3.9,1.3,6.1,1.5
			c3.9,0.2,7,2.6,10.6,3.6c1.5,0.5,2.8,1,4.3,1.5c1.6,0.7,3.3,1.1,4.9,1.8c3.8,1.5,7.5,2.9,11.1,4.6c4.3,1.8,8.7,3.8,12.8,5.9
			c3.4,1.8,6.7,3.9,10,5.7c3.6,2,7.2,3.9,10.6,6.1c3.6,2.3,7,4.7,10.6,7.2c3.6,2.6,6.9,5.4,10.5,7.9c5.7,3.8,10.6,8.3,15.6,13.1
			c3.1,3.1,6.9,5.9,10,9c4.1,4.1,7.9,8.5,11.8,12.8c2.8,3.1,5.6,6.2,8,9.5c3.1,4.1,5.9,8.3,8.8,12.6c1.6,2.3,3.1,4.7,4.7,7.2
			c2,2.9,3.9,5.7,5.7,8.7c0.5,0.8,0.8,1.6,1.3,2.3c2,3.6,3.9,7,5.7,10.6c2.1,3.9,4.3,8,6.1,12.1c1.6,3.8,2.9,7.5,4.4,11.3
			c1.1,2.6,2.3,5.4,3.3,8c0.7,1.6,1.1,3.4,1.8,5.1c0.7,1.8,1.3,3.4,2,5.2c0.2,0.3,0.3,0.7,0.5,1.1c1,3.3,1.8,6.5,2.6,9.8
			c0.7,2.5,0.8,4.9,1.5,7.4c0.5,2.3,1.1,4.6,1.8,6.7c0.3,1.3,0.7,2.6,1,3.9c0.8,4.1,1.5,8.2,2.3,12.1c0.2,1.1,0.2,2.3,0.3,3.3
			c0.3,2.3,0.8,4.7,1.1,7c0.2,0.7,0.2,1.5,0.2,2.1c0,3.9,0,7.9,0.2,11.8c0.2,3.4,1.3,6.7,0.8,10c-1.1,9.2-0.8,18.2-1.1,27.3
			c-1.8,3.8-1,7.9-1.5,11.8c-0.5,3.4-1.5,6.9-2.1,10.2v0.2c-0.5,3.4-1,6.7-1.6,10.2c-0.5,2.5-1.3,4.9-2.1,7.4
			c-0.5,1.6-1,3.3-1.5,5.1c-0.7,2.5-1.1,4.7-1.6,7.2c-0.3,1.3-0.8,2.8-1.3,4.1c-1.3,3.9-2.5,7.9-3.9,11.6c-1.5,3.6-3.1,7.2-4.7,10.8
			c-1.5,3.3-2.8,6.4-4.3,9.5c-2.1,4.6-4.4,9.2-6.7,13.6c-2.1,3.9-4.6,7.5-6.9,11.3c-1,1.5-2,2.9-2.9,4.6c-0.8,1.5-1,2.9,0.3,4.3
			c3.4,3.6,7,7.2,10.6,10.8c5.9,6.1,12,12,17.8,17.8c4.6,4.6,9.3,9.2,13.9,13.9c4.4,4.4,9,9,13.4,13.4c4.6,4.6,9.3,9.2,13.9,13.9
			c4.6,4.6,9.2,9.2,13.8,13.8c4.6,4.6,9.2,9.2,13.8,13.8c4.6,4.6,9.2,9.2,13.8,13.8c4.6,4.6,9.2,9.2,13.8,13.8
			c4.6,4.6,9.2,9.3,13.9,13.9c4.6,4.6,9.3,9.2,13.9,13.9c4.4,4.4,9,9,13.4,13.4c4.1,4.3,8.3,8.3,12.1,12.8c2,2.3,3.3,4.9,4.6,7.7
			c1.3,2.6,2.6,5.4,3.6,8.2c0.8,2.1,1.1,4.4,1.5,6.5c0.3,2.8-0.5,5.7,1.1,8.5c0.2,0.3,0,0.8,0,1.1c-0.3,1.6-0.8,3.4-0.8,5.1
			c0.2,6.1-2.3,11.3-4.6,16.5c-1.3,2.6-2.5,5.6-4.4,7.7c-3.9,4.4-7.9,8.8-12.4,12.4c-3.4,2.6-8,4.1-12.3,5.9c-2,0.8-3.9,1.5-6.1,2.3
			c-0.7,0.2-1.5,0.3-2.3,0.3c-2.8,0.2-5.6-0.5-8.3,1c-0.3,0.2-0.8,0-1.3,0c-2-0.3-3.9-1-5.9-0.8c-3.3,0.3-6.2-1-9-2
			c-4.6-1.8-9-3.8-13.3-6.1c-2.8-1.6-5.2-4.1-7.5-6.4c-7.2-7-14.4-14.2-21.4-21.4c-8.7-8.7-17.4-17.5-26.2-26.2
			c-5.6-5.6-11.3-11.1-16.9-16.7c-7.5-7.5-14.9-15.1-22.4-22.6c-5.6-5.6-11.3-11.1-16.9-16.7c-7.5-7.5-14.9-15.1-22.4-22.4
			c-5.6-5.6-11.3-11.1-16.9-16.7c-6.2-6.2-12.3-12.4-18.5-18.7c-3.9-3.9-7.9-7.9-11.8-11.8c-1.1-1.1-3.1-1.1-4.7-0.2
			c-4.3,2.6-8.3,5.6-12.8,8c-3.6,2.1-7.5,3.9-11.3,5.7c-3.1,1.6-6.4,3.3-9.5,4.9c-2.3,1.1-4.7,2-7,2.9c-4.3,1.6-8.5,3.4-12.8,5.1
			c-2.8,1-5.6,2-8.3,2.8c-4.9,1.5-10,2.9-14.9,4.3c-3.8,1-7.5,1.6-11.3,2.6c-2.9,0.7-6.1,1.5-9,2.3c-0.2,0-0.3,0.2-0.5,0.2
			c-4.3,0.5-8.7,0.8-12.9,1.3c-6.1,0.8-12,1.5-18.2,1.3H335c-4.9,0.5-9.8,1.1-14.7,1.1c-4.6,0-9-0.7-13.6-1.1
			c-1.6-0.2-3.3-0.2-4.9-0.2c-5.6-0.5-11-0.8-16.5-1.3c-2.6-0.3-5.2-0.7-7.9-1.1c-3.1-0.7-6.1-1.5-9.2-2.3c-2.5-0.7-5.1-1-7.5-1.6
			c-2.1-0.5-4.3-1.1-6.4-1.6c-3.1-0.8-6.1-1.5-9.2-2.3c-0.2,0-0.3,0-0.3,0c-4.1-1.5-8-3.1-12.1-4.6c-2.9-1.1-6.1-2-9-3.3
			c-2.1-0.8-4.3-2-6.4-2.9c-3.6-1.6-7.4-3.3-11-4.9c-2.1-1-4.1-2.1-6.2-3.3c-5.1-2.8-10.2-5.6-14.9-8.7c-6.2-4.1-12.3-8.3-18.3-12.6
			c-3.6-2.5-7-5.1-10.5-7.9c-3.4-2.8-6.5-5.7-9.8-8.7c-2.9-2.6-5.9-5.1-8.7-7.9c-2.3-2.3-4.4-4.7-6.5-7.2c-2.5-2.6-4.9-5.1-7.2-7.7
			c-3.6-4.3-6.9-8.7-10.3-12.9c-2.5-3.1-4.7-6.2-7-9.5c-2.1-3.1-4.3-6.4-6.2-9.7c-2.5-3.9-4.9-7.9-7.4-12c-1.6-2.8-2.9-5.6-4.3-8.5
			c-1.6-3.3-3.4-6.5-5.1-10c-1.1-2.3-2-4.6-2.9-7c-1.5-3.6-2.8-7.4-4.1-11.1c-1.3-3.4-2.3-6.9-3.8-10.2c-1.5-3.3-2-6.7-2.8-10.2
			c-0.5-2.5-1.6-4.9-2.3-7.4c-0.5-1.8-0.8-3.4-1.3-5.2c-0.5-2.6-1-5.4-1.5-8c-0.2-1.1-0.7-2.3-1-3.3c-0.2-0.3-0.3-0.7-0.3-1
			c-0.5-3.8-0.8-7.5-1.3-11.5c-0.3-2.3-0.7-4.4-1-6.7c-0.2-0.7-0.2-1.5-0.2-2.1c-0.2-5.6-0.2-11-0.5-16.5c0-1-0.7-1.8-1.1-2.6
			C60,323.2,60,319.6,60,316.2z M86.4,321.4c-0.2,0-0.2,0-0.3,0c0,4.4,0,8.8,0,13.4c0,2.9,0.2,6.1,0.5,9c0.7,5.1,1.3,10,2.1,14.9
			c0.5,3.4,1,6.7,1.6,10.2c0,0.2,0.2,0.3,0.2,0.5c0.7,2.8,1.5,5.4,2.1,8.2c0.3,1,0.5,2,0.8,2.9c0.7,2.5,1.3,5.1,2,7.5
			c0.7,2.1,1.1,4.4,1.8,6.5c1,2.8,2.1,5.4,3.1,8c1.1,3.1,2.3,6.4,3.4,9.5c1,2.6,2.1,5.1,3.3,7.7c2,4.1,3.9,8,5.9,12
			c1.3,2.5,2.8,4.7,4.3,7.2c2.1,3.6,3.9,7.4,6.2,10.8c4.3,6.1,8.5,12.1,13.1,18c4.4,5.6,9.2,10.8,13.9,16c9,9.5,18.5,18.5,29,26.2
			c5.2,3.8,10.6,7.4,16.2,10.8c5.2,3.3,10.5,6.5,16,9.5c4.9,2.6,9.8,5.2,14.9,7.4c4.7,2,9.5,3.6,14.4,5.4c1.5,0.5,2.9,1,4.4,1.5
			c2.9,1.1,5.9,2.5,8.8,3.3c2.6,0.8,5.4,1.1,8,1.8c4.1,1.1,8,2.5,12.1,3.4c3.1,0.7,6.2,1,9.3,1.5c4.4,0.5,8.8,0.8,13.4,1.3
			c0.3,0,0.5,0.2,0.8,0.2c2.1,0.3,4.3,1.1,6.2,1.1c9,0.2,18,0.3,26.8,0c4.7-0.2,9.3,0.3,14.1-1.1c4.3-1.3,9.2-0.3,13.8-1.5
			c3.3-0.8,6.7-1,10-1.6c0.3,0,0.7-0.3,1.1-0.5c0.8-0.3,1.6-0.5,2.6-0.8c2.9-0.7,5.9-1.3,8.8-2.1c2.1-0.5,4.1-1.3,6.2-1.8
			c3.4-1,7-1.8,10.5-2.9c2.9-1,5.7-2.3,8.7-3.4c3.1-1.3,6.4-2.3,9.5-3.6c3.9-1.8,7.7-3.8,11.5-5.7c3.4-1.8,6.9-3.4,10.2-5.2
			c3.6-2.1,7.2-4.3,10.8-6.5c5.7-3.8,11.3-7.9,16.9-11.8c3.6-2.6,7.4-5.2,10.6-8.2c4.3-3.8,8.2-7.9,12.3-12
			c3.8-3.8,7.5-7.7,11.3-11.6c2.1-2.3,3.9-4.7,5.9-7.2c2-2.3,3.9-4.6,5.7-7c2.8-3.8,5.4-7.7,8-11.6c3.3-5.2,6.5-10.5,9.7-16
			c2.5-4.4,4.6-9,6.7-13.8c2.3-4.9,4.4-10,6.5-15.1c0.7-1.6,1.5-3.4,2.1-5.2c1-2.6,2-5.2,2.8-7.9c0.7-2.3,1.1-4.6,1.8-6.7
			c0.5-1.8,1-3.6,1.5-5.4c0.8-3.1,1.6-6.1,2.3-9.2c0.2-0.5,0.2-1,0.2-1.3c0.7-3.3,1.5-6.4,2.1-9.7c0.5-2.3,0.8-4.6,1.1-6.9
			c0.7-5.1,1.6-10.2,1.6-15.1c-0.2-14.4,1.3-28.8-1.1-43.1c-0.8-4.6-1.1-9.3-1.6-13.9c-0.3-2.5-0.8-4.9-1.1-7.5c0-0.3,0-0.5-0.2-0.8
			c-0.8-3.4-1.8-6.9-2.6-10.3c0-0.3-0.2-0.5-0.2-0.8c-0.7-2.6-1.3-5.1-2.1-7.7c-0.7-2.3-1.3-4.7-2.1-7c-1-2.6-2.1-5.1-3.1-7.7
			c-1.5-4.1-2.6-8.3-4.4-12.4c-2.8-6.4-5.7-12.6-9-18.7c-3.8-6.7-7.7-13.4-12-19.8c-3.4-5.2-7.4-10.3-11.3-15.2
			c-2.9-3.8-6.2-7.5-9.7-11c-6.1-6.2-12.1-12.4-18.3-18.3c-3.8-3.6-8.2-6.7-12.3-10c-2.8-2.3-5.6-4.4-8.5-6.5
			c-1.8-1.3-3.6-2.5-5.4-3.8c-2.6-1.6-5.4-3.4-8-5.1c-3.8-2.3-7.7-4.6-11.6-6.7c-3.8-2-7.7-3.8-11.5-5.6c-3.6-1.6-7-3.4-10.8-4.9
			c-4.1-1.6-8.2-2.9-12.3-4.3c-4.6-1.6-9.2-3.3-13.8-4.6c-3.4-1-6.9-1.8-10.5-2.6c-4.4-1-9-2-13.4-2.6c-2.6-0.5-5.2-0.3-7.9-1.1
			c-3.6-1-7.5-1.5-11.5-1.5c-17.8,0.2-35.9-2-53.7,2.3c-2.6,0.7-5.4,0.2-8,1.1c-2.9,1-6.2,1-9.3,1.6c-2.3,0.5-4.4,1.1-6.7,1.6
			c-2.6,0.7-5.2,1.5-7.9,2.1c-2.5,0.7-4.9,1.5-7.4,2.3c-4.1,1.5-8,2.9-12,4.4c-2.8,1-5.7,2-8.5,3.3c-4.1,1.8-8,3.9-12.1,5.9
			c-3.4,1.8-6.9,3.4-10.2,5.4c-2.8,1.6-5.4,3.3-8,5.1c-4.1,2.6-8.2,5.1-12.1,7.7c-3.6,2.5-7,5.1-10.3,7.9
			c-6.5,5.7-13.3,11.3-19.5,17.5c-7.4,7.2-14.6,14.9-20.6,23.4c-3.8,5.4-7.9,10.6-11.5,16c-2.8,4.1-5.2,8.2-7.5,12.4
			c-2,3.4-3.6,7.2-5.4,10.8c-2.5,5.1-5.1,10.2-7.4,15.2c-2,4.7-3.8,9.7-5.4,14.7c-1.6,4.9-2.8,9.8-4.3,14.7c-0.7,2.1-1,4.3-1.6,6.4
			c-0.7,2.8-1.6,5.7-2.1,8.5c-0.7,3.8-1,7.7-1.5,11.6c0,0.2,0,0.3-0.2,0.3c-0.7,4.3-1.8,8.7-2,12.9C86,307.8,86.4,314.5,86.4,321.4z
			 M704.6,677.5c0.2-3.3,0-6.7-1.5-10.2c-2.1-4.4-5.2-8-8.8-11.5c-5.7-5.7-11.5-11.5-17.2-17.2c-7.4-7.4-14.6-14.6-21.9-21.9
			c-5.7-5.7-11.6-11.6-17.4-17.4c-6.1-6.1-12.1-12.1-18.2-18.2c-5.7-5.7-11.5-11.3-17.2-17c-6.7-6.7-13.4-13.4-20.3-20.3
			c-1.6-1.6-2.3-1.6-3.8,0c-2.1,2.3-4.3,4.7-6.4,7c-3.4,3.6-6.7,7.4-10.3,11c-5.7,5.6-11.6,10.8-17.4,16.2c-1.1,1-1.3,2,0,3.1
			c1.3,1.1,2.6,2.6,3.9,3.8c5.2,5.2,10.5,10.5,15.7,15.7c5.2,5.2,10.5,10.5,15.9,15.9c5.2,5.2,10.5,10.5,15.7,15.7
			c5.2,5.2,10.5,10.5,15.7,15.7c5.2,5.2,10.5,10.5,15.9,15.9c5.2,5.2,10.5,10.5,15.7,15.7c4.1,4.3,8.2,8.5,12.4,12.4
			c3.3,3.1,5.9,7,10.3,8.8c0.7,0.3,1.3,0.7,2.1,1c2.3,0.8,4.4,1.8,6.7,2.3c2,0.3,4.3,0,6.2,0.2c5.6,0.5,10.2-2,14.1-5.1
			C701.1,693.9,705.2,687,704.6,677.5z M562.1,524.3c-0.3-0.7-0.7-1.1-1.1-1.6c-1.8-1.8-3.6-3.6-5.4-5.2
			c-9.3-9.5-18.8-18.8-28.2-28.3c-2.6-2.6-3.1-2.5-5.6,0.3c-4.4,5.1-8.8,10.3-13.6,15.4c-2,2.1-4.3,3.8-6.4,5.6
			c-4.3,3.9-8.5,7.9-12.8,11.8c-2,1.8-2,2.3,0,4.3c2.6,2.6,5.2,5.2,7.9,7.9c3.4,3.4,7,6.9,10.5,10.3c5.4,5.4,10.8,10.6,16,16
			c1,1,1.8,1.1,2.8,0.5c2.9-2.5,5.9-5.1,8.8-7.7c3.4-3.1,6.7-6.4,9.8-9.7c5.6-5.9,11-11.8,16.5-17.7
			C561.6,525.6,561.8,524.9,562.1,524.3z"/>
		<path class="st2" d="M321.3,530.6c-6.7-2-13.9-0.5-21.1-1.5c-3.1-0.3-6.2-0.7-9.5-1.1c-4.6-0.7-9-1.6-13.4-2.6
			c-4.3-1-8.5-2.3-12.8-3.4c-2.1-0.7-4.4-1-6.5-1.6c-2.5-0.8-4.9-1.8-7.4-2.8c-2.9-1.1-6.1-2.3-9-3.6s-5.7-2.6-8.7-3.9
			c-2.8-1.3-5.4-2.5-8-3.8c-4.1-2.3-8.2-4.7-12.3-7.2c-3.4-2.1-6.9-4.1-10.2-6.4c-1.8-1.1-3.6-2.6-5.2-3.9c-4.3-3.6-8.5-7-12.6-10.6
			c-4.6-4.1-9-8.2-13.3-12.4c-3.4-3.4-6.5-7.2-9.7-10.8c-2.6-3.1-5.1-6.5-7.5-9.8c-2.3-3.1-4.7-6.4-6.9-9.7
			c-2.5-3.8-4.7-7.4-6.9-11.3c-3.1-5.9-6.2-11.8-9-17.7c-1.8-3.6-2.9-7.5-4.4-11.5c-1.1-2.8-2.5-5.4-3.4-8.2c-0.7-1.8-1-3.9-1.5-5.7
			c-0.7-2.6-1.5-5.4-2.3-8c-0.2-0.3-0.3-0.7-0.3-1.1c-0.8-3.4-1.6-6.9-2.3-10.3c-0.2-1.1,0-2.3-0.2-3.3c-0.2-1.5-0.7-2.8-1-4.1
			c-0.2-0.5-0.3-0.8-0.3-1.3c-0.3-6.9-1.8-13.6-1.5-20.5c0.2-2.9-0.7-5.9-1-8.8c-0.2-1.1-0.2-2.3,0-3.3c0.3-3.1,0.7-6.1,1-9.2
			c0.2-1.3,0-2.5,0-3.8c0.3-5.6,0.7-11.3,1.3-16.9c0.5-3.4,1.6-6.9,2.3-10.3c0.5-2.6,1-5.4,1.5-8c0.5-2,1-3.9,1.6-6.1
			c0.7-2.3,1.3-4.7,2.1-7c1-3.1,2.1-6.1,3.1-9.2c0.7-1.8,1.3-3.6,2.1-5.4c1.5-3.4,2.9-6.7,4.4-10.2c1.6-3.4,3.1-6.9,4.9-10.2
			c1-2,2.1-3.8,3.3-5.7c2.5-4.1,4.7-8.2,7.4-12.1c1.3-2,2.8-3.9,4.3-5.9c2.1-2.9,4.1-5.9,6.4-8.8c1.3-1.8,3.1-3.4,4.6-5.1
			c2.3-2.6,4.6-5.4,7-8c3.9-4.1,7.7-8,12-11.8c3.6-3.3,7.5-6.1,11.3-9.2c2.5-2,4.9-4.3,7.5-6.1c3.3-2.3,6.7-4.4,10.2-6.5
			c2.3-1.5,4.7-3.1,7-4.4c3.1-1.8,6.4-3.4,9.5-5.1c2.9-1.5,5.9-3.1,9-4.4c3.8-1.6,7.5-3.8,11.6-4.7c1.5-0.3,2.9-1.3,4.4-2
			c1.3-0.5,2.6-1,3.9-1.5c1.8-0.5,3.6-1.1,5.4-1.6c2.9-0.8,5.9-1.6,9-2.3c1.6-0.5,3.3-0.8,4.9-1.1c3.3-0.7,6.4-1.3,9.7-2
			c4.4-0.8,8.8-1.5,13.4-2.3c0.7-0.2,1.5-0.2,2.1-0.2c4.3,0,8.5,0,12.8-0.2c2-0.2,3.8-0.8,5.7-1c1.5-0.2,2.8-0.2,4.3,0
			c2,0.2,3.8,0.8,5.7,1c2.3,0.2,4.4,0,6.7,0.2c5.6,0.3,11.3,0.5,16.9,1.5c2.6,0.5,5.4,0.7,8,1.1c2.5,0.5,4.9,1.5,7.4,2.1
			c2.5,0.7,4.9,1.1,7.4,1.6c2.5,0.7,4.9,1.3,7.2,2c2,0.7,4.1,1.1,6.1,2c1.1,0.3,2.1,1.1,3.3,1.5c2.8,1,5.6,1.5,8.3,2.6
			c3.8,1.6,7.4,3.6,11.1,5.6c2.5,1.1,4.9,2.3,7.4,3.4c2.8,1.5,5.6,3.1,8.3,4.7c3.1,1.8,6.2,3.6,9.3,5.6c1.6,1,3.3,2.3,4.9,3.4
			c2.8,2.1,5.4,4.3,8,6.4c4.1,3.3,8.2,6.2,12.1,9.8c5.1,4.7,10,9.7,14.7,14.7c2.5,2.6,4.9,5.4,7.2,8.3c2,2.5,3.6,5.1,5.4,7.7
			c1.3,2,2.8,3.8,4.1,5.6c2.5,3.8,4.9,7.5,7.2,11.3c2.1,3.4,4.4,7,6.4,10.6c2.1,3.9,3.8,8.2,5.6,12.3c0.5,1,1,2,1.5,2.9
			c1,2.5,1.6,4.9,2.6,7.5c0.3,1,1,2,1.3,3.1c1.3,4.3,2.8,8.3,4.1,12.6c1.5,5.1,2.5,10.5,4.1,15.6c0.8,2.5,0.8,4.9,1.1,7.5
			c0.7,3.9,1.5,8,2.1,12c0.2,0.7,0.2,1.3,0.2,2c0.2,4.9,0.2,10,0.3,14.9c0,1.3,0.5,2.5,0.7,3.8c0.2,1.1,0.5,2.6,0.2,3.6
			c-1.5,3.6-0.8,7.5-1.1,11.3c-0.2,1.3,0,2.8,0,4.1c-0.2,2.8,0.5,5.6-1.1,8v0.2c-0.5,3.3-1.1,6.4-1.3,9.7c0,4.3-1.3,8.3-2.5,12.3
			c-0.7,2.5-1,5.1-1.6,7.5c-0.5,2.1-1.1,4.4-1.8,6.5c-0.7,2.3-1.3,4.4-2.1,6.5c-0.3,1-1,2-1.3,2.9c-2.5,7.9-5.9,15.2-9.8,22.4
			c-2,3.8-3.8,7.5-5.7,11.1c-1.8,3.3-3.8,6.4-5.9,9.3c-2.8,4.1-5.6,8.2-8.5,12.1c-3.1,4.1-6.2,8-9.7,11.6
			c-5.6,6.1-11.3,11.8-17,17.7c-2.8,2.8-5.9,5.4-9,7.9c-2.9,2.3-6.1,4.6-9.3,6.7c-4.1,2.8-8.3,5.6-12.6,8.2c-3.1,2-6.2,4.1-9.5,5.9
			c-2.1,1.3-4.6,2.1-6.9,3.3c-3.1,1.5-6.4,3.1-9.5,4.4c-3.1,1.3-6.2,2.5-9.3,3.6c-2.6,1-5.2,2-7.9,2.9c-2.1,0.8-4.4,1.5-6.5,2.1
			c-2.8,0.8-5.4,1.6-8.2,2.3c-2.1,0.5-4.1,1-6.2,1.5c-1.5,0.3-2.9,0.8-4.6,1c-3.8,0.7-7.4,1.1-11.1,1.6c-2,0.3-4.1,0.7-6.1,1
			c-0.7,0.2-1.5,0.2-2.1,0.2c-4.1,0-8.2,0-12.4,0.2C327.5,529.7,324.7,530.3,321.3,530.6z M322.1,504.9
			C322.1,504.8,322.1,504.8,322.1,504.9c5.7,0,11.5,0,17.4,0c0.8,0,1.6-0.2,2.5-0.2c4.3-0.7,8.3-1.3,12.6-2.1c2.9-0.5,6.1-1.1,9-1.8
			c0,0,0.2,0,0.2-0.2c2.5-0.7,4.9-1.3,7.5-2c2.3-0.7,4.6-1.3,6.9-2c1.3-0.3,2.6-0.8,4.1-1.3c2-0.7,3.8-1.5,5.7-2.3
			c1.8-0.7,3.8-1.3,5.6-2.1c2.1-1,4.3-2,6.2-2.9c3.3-1.5,6.5-2.8,9.7-4.4c3.8-2.1,7.4-4.4,11-6.7c1.3-0.8,2.8-1.6,4.1-2.6
			c2-1.5,3.8-2.9,5.7-4.3c3.6-2.6,7.2-5.4,10.6-8.2c2.6-2.1,5.2-4.1,7.5-6.4c3.6-3.8,7.2-7.5,10.6-11.5c4.6-5.4,9.3-10.6,13.4-16.4
			c3.6-4.9,6.7-10.3,9.7-15.6c2.9-5.2,5.6-10.8,8.2-16.2c1-2,1.6-4.3,2.5-6.2c0.8-2.3,1.8-4.4,2.6-6.7c0.7-1.5,1.1-3.1,1.6-4.6
			c0.7-1.8,1.6-3.8,2-5.6c0.7-2.6,1-5.2,1.5-7.9c0-0.3,0.3-0.7,0.3-1c0.8-2.6,1.8-5.2,2.1-8c0.7-4.1,1-8.2,1.3-12.3
			c0-0.2,0.2-0.3,0.2-0.5c0.3-2.3,1-4.7,1.1-7c0.2-4.6,0.2-9.2,0.2-13.8c0-6.2-0.2-12.3-0.3-18.5c0-1.8-0.8-3.6-1.1-5.2
			c-0.5-4.1-0.8-8.2-1.5-12.1c-0.3-2-1-3.9-1.6-6.1c-0.8-2.8-1.5-5.7-2.1-8.5c-0.2-0.8-0.5-1.6-0.7-2.5c-1-3.1-2.1-6.1-3.1-9.2
			c-1.1-3.1-2.1-6.2-3.4-9.2c-0.8-2.1-2.1-3.9-3.1-6.1c-2.3-4.4-4.1-9-6.7-13.4c-3.4-6.1-7.2-12.1-11.5-17.8
			c-4.1-5.6-8.5-11-13.3-16c-4.3-4.6-9.2-8.7-13.6-13.3c-5.1-5.2-11.1-9.3-17-13.6c-4.4-3.3-9.3-5.9-14.1-8.8c-1.6-1-3.3-2-4.9-2.8
			c-3.1-1.5-6.2-2.8-9.2-4.1c-3.9-1.8-7.7-3.6-11.6-5.2c-3.1-1.3-6.2-2.5-9.5-3.4c-2.1-0.7-4.4-1.1-6.5-1.6
			c-2.1-0.5-4.3-0.8-6.2-1.5c-3.9-1.5-7.7-2.6-12-2.5c-0.3,0-0.8,0-1.1-0.2c-4.1-0.8-8.2-2.1-12.4-2.1c-11.5-0.3-22.8-0.2-34.2-0.2
			c-1,0-2,0.2-2.9,0.3c-4.4,0.7-8.8,1.5-13.1,2.1c-1.5,0.3-3.1,0.5-4.6,1c-2,0.5-3.8,1.1-5.7,1.6c-2.6,0.7-5.2,1-7.9,1.5
			c-0.5,0.2-0.8,0.3-1.3,0.5c-3.1,1.1-6.4,2.3-9.5,3.3c-2.9,1-5.9,1.8-8.7,3.1c-6.5,3.1-13.1,6.5-19.6,9.8
			c-3.6,1.8-7.2,3.8-10.5,6.1c-5.2,3.6-10.5,7.4-15.4,11.3c-3.3,2.6-6.5,5.4-9.5,8.3c-4.6,4.6-9,9.5-13.6,14.2
			c-1.6,1.8-3.4,3.6-4.9,5.6c-1.6,2.1-3.1,4.6-4.7,6.9c-2.1,2.9-4.3,5.9-6.2,8.8c-0.7,1-1.3,2.1-2,3.3c-1.8,2.9-3.9,5.7-5.4,8.7
			c-2.9,6.4-5.7,12.8-8.3,19.3c-2.1,5.4-4.3,10.8-5.9,16.4c-1.3,4.3-2,8.7-2.9,13.1c0,0.3-0.2,0.7-0.3,1c-0.3,1.5-0.8,2.9-1,4.6
			c-0.2,1-0.2,2-0.2,2.9c-0.7,4.9-2.1,9.7-2.1,14.6c0.2,12.6-1.3,25.2,1,37.7c0.8,4.1,1,8.3,1.6,12.6c0,0.3,0.2,0.8,0.3,1.1
			c0.7,2.5,1.5,4.9,2.1,7.4c0.7,2.6,1,5.2,1.8,7.7c1,3.4,2.3,6.7,3.4,10c1.3,3.6,2.6,7.2,4.1,10.6c0.3,0.8,1,1.6,1.3,2.6
			c1.1,2.5,2.1,4.9,3.3,7.4c1.3,2.8,2.5,5.4,4.4,8c2.3,3.3,3.8,7.2,6.1,10.6c3.4,5.1,7,10,10.8,14.7c2.8,3.6,5.9,7,9,10.2
			c4.1,4.1,8.5,8,12.8,12.1c2.3,2.1,4.4,4.3,6.9,6.1c2.1,1.8,4.6,3.3,7,4.9c2.9,2.1,6.1,4.3,9,6.2c0.8,0.7,1.8,1,2.6,1.6
			c2.9,2,5.7,4.1,9,5.7c4.7,2.5,9.7,4.7,14.6,6.9c3.6,1.6,7.5,2.8,11.3,4.3c1.8,0.7,3.4,1.5,5.2,2c2.1,0.7,4.1,1.3,6.2,1.8
			c2.8,0.7,5.4,1.3,8.2,2.1c2.1,0.5,4.3,1.3,6.5,1.8c2.5,0.5,4.9,0.8,7.5,1.1c4.6,0.5,9,1.1,13.6,1.3
			C312.6,505.1,317.4,504.9,322.1,504.9z"/>
		<path class="st2" d="M468.6,269.7c0,5.4-3.4,10.3-8.5,12c-5.9,2-12.6-1.5-14.9-7.2c-2.3-5.2-4.9-10.3-7.5-15.4
			c-1.8-3.4-3.6-7-5.7-10.3c-2-2.9-4.1-5.6-6.4-8.3c-2.8-3.4-5.6-6.9-8.7-10c-4.6-4.4-9.3-8.7-14.1-12.8c-3.3-2.8-6.7-5.2-10.2-7.4
			c-4.7-2.9-9.8-5.6-14.7-8.2c-2.9-1.5-5.9-2.8-8.8-3.8c-3.3-1.1-6.7-2.1-10-3.1c-2-0.7-3.9-1.3-5.9-2c-0.3-0.2-0.7-0.3-1-0.3
			c-2.5-0.5-4.9-1.1-7.5-1.5c-6.7-1-13.6-1.5-20.5-1.6c-3.3,0-6.7-1.5-9.5-2.9c-3.6-2-4.7-5.7-4.6-9.8c0-4.9,1.8-9.2,6.7-11
			c2.9-1.1,6.1-2.8,9.5-1.1c0.7,0.3,1.5,0.3,2.3,0.3c2.3,0,4.7,0,7,0.2c4.6,0.3,9.2,0.7,13.8,1.3c2.9,0.5,5.9,1.6,8.8,2.3
			c2.3,0.5,4.6,0.8,6.7,1.5c2.9,0.8,5.9,1.8,8.8,2.9c3.3,1.1,6.4,2.3,9.5,3.8c4.1,2,8,4.1,12.1,6.1c1.8,1,3.6,1.8,5.4,2.8
			c2.5,1.5,5.1,2.9,7.4,4.6c4.3,2.9,8.3,5.9,12.4,9c1.5,1,2.5,2.5,3.9,3.6c6.9,5.4,12.4,12.1,18.2,18.5c2.5,2.8,4.6,6.1,6.7,9.2
			c2.9,4.4,5.9,8.8,8.5,13.4c2.3,3.8,4.3,7.7,6.1,11.6c1.5,3.1,2.9,6.4,4.1,9.7C468.8,267,468.6,268.4,468.6,269.7z"/>
		<path class="st2" d="M454.1,321.4c0-7.4,4.6-12,12-12s11.8,4.4,12,11.8c0.2,7.4-4.6,12-11.8,12.1
			C459,333.5,454.2,328.8,454.1,321.4z"/>
	</g>
</g>
<g id="Calque_3">
	<path d="M222.3,248.3l137.3-141.7c16.6-17.1,43.9-17.5,61-1l146.2,141.7c27.8,27,8.7,74.1-30,74.1H253.3
		C215.2,321.4,195.8,275.7,222.3,248.3z"/>
	<path d="M566.9,550L430.3,691.1c-16.5,17-43.7,17.5-60.7,1L224,551c-27.7-26.8-8.7-73.7,29.9-73.7h282.2
		C574,477.3,593.3,522.8,566.9,550z"/>
</g>
</svg>
