<?xml version="1.0" encoding="utf-8"?>
<!-- Generator: Adobe Illustrator 26.0.1, SVG Export Plug-In . SVG Version: 6.00 Build 0)  -->
<svg version="1.1" xmlns="http://www.w3.org/2000/svg" xmlns:xlink="http://www.w3.org/1999/xlink" x="0px" y="0px"
	 viewBox="0 0 415.3 405.9" style="enable-background:new 0 0 415.3 405.9;" xml:space="preserve">
<style type="text/css">
	.st0{display:none;}
	.st1{display:inline;fill:#FFFFFF;}
	.st2{display:inline;stroke:url(#SVGID_1_);stroke-width:0.75;stroke-miterlimit:10;}
	.st3{display:inline;fill:#FFDA15;}
	.st4{fill:#1739FF;}
</style>
<g id="AF_Logo" class="st0">
	<path class="st1" d="M411.6,0l-72.2,0.1h-1c-13.4,0.4-26.7,1.7-40,3.9c-1.7,0.3-3,1.8-3,3.6v294c0,2-1.6,3.6-3.6,3.6h-11.6v-293
		c0-2.7-1.8-4.6-3.6-3.8C261.9,15.2,205,45.5,148,127.1c-33.8,48.4-50.7,119.8-59.1,178H3.6c-2,0-3.6,1.6-3.6,3.6v1.9
		c0,2,1.5,3.6,3.5,3.7h0.1h84c-3.8,28.6-6.2,57.3-7,86.1c0,2.2,1.2,4.1,2.8,4.1h50.7c1.5,0,2.8-1.8,2.8-4
		c0.3-28.9,2.8-57.7,7.5-86.2h83.4l-0.1,87.7c0,2.2,1.2,4,2.8,4h47c1.5,0,2.8-1.8,2.8-4v-87.7h64.2c2,0,3.6-1.6,3.6-3.6l0,0V172.5
		c0-2,1.6-3.6,3.6-3.6c0.3,0,0.5,0,0.8,0.1c46.5,10.8,48.5,52.7,47.9,65.5c-0.1,2,1.5,3.7,3.5,3.7h0.1h0.5c2,0,3.6-1.6,3.6-3.6V97
		c0-2-1.6-3.6-3.6-3.6s-3.6,1.6-3.6,3.6c-1.4,42.7-27.7,59.2-48.4,65.5c-1.9,0.6-3.9-0.5-4.5-2.4c-0.1-0.3-0.1-0.7-0.1-1V5
		c0-2,1.7-3.6,3.7-3.6c0.2,0,0.3,0,0.5,0c53.6,8,55.8,53.5,55.2,66.9c-0.1,2,1.5,3.7,3.5,3.7h0.1h0.5c2,0,3.6-1.6,3.6-3.6V3.6
		C415.3,1.6,413.7,0,411.6,0C411.7,0,411.6,0,411.6,0z M146,305.2c10.3-55.8,31.9-122.9,77.6-166.8c1.9-1.8,4.3,0.1,4.4,3.3
		l-0.2,163.6H146V305.2z"/>
	<circle class="st1" cx="385.1" cy="382.2" r="23"/>
</g>
<g id="steering-wheel" class="st0">
	<radialGradient id="SVGID_1_" cx="207.65" cy="202.95" r="191.735" gradientUnits="userSpaceOnUse">
		<stop  offset="0" style="stop-color:#FFFFFF"/>
		<stop  offset="0" style="stop-color:#424242"/>
		<stop  offset="0.8799" style="stop-color:#000000"/>
	</radialGradient>
	<path class="st2" d="M399,198c-1-40.7-14.8-78.2-37.4-108.7c-34.9-47.1-90.8-77.7-153.9-77.7c-58.2,0-110.2,25.9-145.3,66.9
		c-28.4,33.1-45.6,75.9-46,122.8c0,0.6,0,1.1,0,1.7c0,97.7,73.2,178.3,167.8,189.9c7.7,0.9,15.6,1.4,23.5,1.4
		c7.9,0,15.7-0.5,23.4-1.4c94.7-11.5,168-92.2,168-189.9C399,201.3,399,199.6,399,198z M207.7,51.6c60,0,111.9,34.9,136.3,85.6v0
		c-16.7,28.9-42.6,51.8-73.8,64.6c-1,0.4-2.2-0.1-2.7-1C256.6,178.4,233.6,163,207,163c-25,0-46.7,13.6-58.4,33.8
		c-0.6,1-1.7,1.4-2.7,0.9c-29.9-14.7-54.3-39.1-69-69c-0.3-0.6-0.3-1.4,0.1-2C103.2,81.7,151.9,51.6,207.7,51.6z M56.3,202.9
		L56.3,202.9c0-1.2,1.1-2.2,2.3-2.1c30.9,4.1,58.9,17.5,81,37.3c0.4,0.3,0.6,0.8,0.7,1.3c3.1,22.7,17.5,41.7,37.3,51.3l0,0
		c8,18.4,12.4,38.7,12.4,60.1l0,0c0,1.2-1.1,2.2-2.3,2.1C113.6,343.2,56.3,279.8,56.3,202.9z M226.5,353.1c-1.2,0.2-2.3-0.8-2.3-2
		c0-1.2,0-2.4,0-3.6c0-19.5,3.7-38.1,10.4-55.2c0.2-0.5,0.6-0.9,1.1-1.1c21.3-10,36.5-30.8,38.5-55.3c0-0.5,0.3-1,0.7-1.4
		c22.3-19.9,50.6-33.3,81.8-37.2c1.2-0.2,2.3,0.8,2.3,2c0,1.2,0,2.4,0,3.6C359,280.1,301.2,343.8,226.5,353.1z"/>
</g>
<g id="Tire" class="st0">
	<path class="st3" d="M207.7,106.6c-53.2,0-96.4,43.2-96.4,96.4c0,53.2,43.1,96.4,96.4,96.4c53.2,0,96.4-43.1,96.4-96.4
		C304,149.7,260.9,106.6,207.7,106.6z M207.7,291.6c-48.9,0-88.6-39.7-88.6-88.6s39.7-88.6,88.6-88.6s88.6,39.7,88.6,88.6
		S256.6,291.6,207.7,291.6z"/>
	<path class="st3" d="M389.4,203.8c0-5.8,3.1-11.6,9.3-14.3c-0.7-10.7-2.3-21.1-4.8-31.2c-8.6-0.9-14-8.2-14-15.7
		c0-4.2,1.6-8.4,5.3-11.5c-4-9.8-8.8-19.2-14.2-28.2c-10.3,2.2-18.9-6.1-18.9-15.4c0-2.6,0.7-5.3,2.2-7.8
		c-6.8-8.1-14.2-15.6-22.2-22.4c-10.6,6.1-23.4-2-23.4-13.4c0-1.1,0.1-2.3,0.4-3.5c-8.9-5.5-18.3-10.4-28-14.5
		c-8.9,10.1-25.9,4.5-27.1-8.9c-10.1-2.5-20.5-4.2-31.2-5c-2.7,6.1-8.5,9.2-14.2,9.2c-5.8,0-11.6-3.1-14.3-9.3
		c-10.7,0.7-21.1,2.3-31.2,4.8c-0.9,8.6-8.2,14-15.7,14c-4.2,0-8.4-1.6-11.5-5.3c-9.8,4-19.2,8.8-28.2,14.2
		c2.2,10.3-6.1,18.9-15.4,18.9c-2.6,0-5.3-0.7-7.8-2.2C76.4,63.1,69,70.5,62.1,78.5c6.1,10.6-2,23.4-13.4,23.4
		c-1.1,0-2.3-0.1-3.5-0.4c-5.5,8.9-10.4,18.3-14.5,28c10.1,8.9,4.5,25.9-8.9,27.1c-2.5,10.1-4.2,20.5-5,31.2
		c6.1,2.7,9.2,8.5,9.2,14.2c0,5.8-3.1,11.6-9.3,14.3c0.7,10.7,2.3,21.1,4.8,31.2c8.6,0.9,14,8.2,14,15.7c0,4.2-1.6,8.4-5.3,11.5
		c4,9.8,8.8,19.2,14.2,28.2c10.3-2.2,18.9,6.1,18.9,15.4c0,2.6-0.7,5.3-2.2,7.8c6.8,8.1,14.2,15.6,22.2,22.4
		c10.6-6.1,23.4,2,23.4,13.4c0,1.1-0.1,2.3-0.4,3.5c8.9,5.5,18.3,10.4,28,14.5c8.9-10.1,25.9-4.5,27.1,8.9c10.1,2.5,20.5,4.2,31.2,5
		c2.7-6.1,8.5-9.2,14.2-9.2c5.8,0,11.6,3.1,14.3,9.3c10.7-0.7,21.1-2.3,31.2-4.8c0.9-8.6,8.2-14,15.7-14c4.2,0,8.4,1.6,11.5,5.3
		c9.8-4,19.2-8.8,28.2-14.2c-2.2-10.3,6.1-18.9,15.4-18.9c2.6,0,5.3,0.7,7.8,2.2c8.1-6.8,15.6-14.2,22.4-22.2
		c-6.1-10.6,2-23.4,13.4-23.4c1.1,0,2.3,0.1,3.5,0.4c5.5-8.9,10.4-18.3,14.5-28c-10.1-8.9-4.5-25.9,8.9-27.1
		c2.5-10.1,4.2-20.5,5-31.2C392.4,215.4,389.4,209.6,389.4,203.8z M207.7,325.7c-67.8,0-122.8-55-122.8-122.8s55-122.8,122.8-122.8
		c67.8,0,122.8,55,122.8,122.8S275.4,325.7,207.7,325.7z"/>
	<path class="st3" d="M207.7,99.6c-57.1,0-103.4,46.3-103.4,103.4c0,57.1,46.3,103.4,103.4,103.4S311,260,311,202.9
		C311,145.9,264.7,99.6,207.7,99.6z M207.7,298c-52.5,0-95-42.5-95-95s42.5-95,95-95s95,42.5,95,95S260.1,298,207.7,298z"/>
	<circle class="st3" cx="207.6" cy="202.9" r="74.3"/>
</g>
<g id="Calque_4">
	<g>
		<path class="st4" d="M400.7,294.4l-88.1-110.6c-3.5-4.3-4.5-10.1-2.8-15.4l4.3-13.5c1.7-5.4,0.6-11.3-3.1-15.7l-32.7-39.1
			c-2.7-3.2-6.5-5.3-10.7-5.8l-21-2.6c-5.7-0.7-11.3,1.6-14.9,6c-3.4,4.2-8.7,6.4-14,6.1c-0.8-0.1-1.7-0.2-2.5-0.4l-11.1-2.5
			c-6.7-1.5-13.7,1.3-17.5,7.1l-13.3,20.1c-5,7.5-3,17.7,4.4,22.8l1.8,1.3c5.6,3.9,8.3,10.9,6.7,17.6l-6.2,25.7
			c-1.1,4.6-0.2,9.4,2.4,13.3l99.9,145.6c4.5,6.6,13.1,9,20.4,5.8l91.9-40.2C404.4,315.7,407.6,303,400.7,294.4z M227.5,231.7
			c-2-3.3-1.8-7.4,0.5-10.5l22.1-29.8c2.1-2.9,5.7-4.3,9.3-3.6l24.8,4.7c2.2,0.4,4.2,1.6,5.6,3.3l76.5,93.8
			c3.7,4.6,2.4,11.5-2.9,14.2l-62.7,33.3c-4.7,2.5-10.6,0.6-12.9-4.3l-4.6-9.7c-0.1-0.3-0.3-0.6-0.5-0.9"/>
		<path class="st4" d="M298.2,324.8l-3.6,3.5c-1.6,1.5-4.2,1.2-5.4-0.7l0,0c-0.5-0.9-0.7-1.9-0.4-2.9c1.7-5.4,1.1-2.8,1.9-5
			c0.2-0.7-6.3-36.7-6.5-37.4c-2.9-8.6-12.4-37.4-14.8-44.8c-0.2-0.5-0.5-1-0.9-1.4L253.4,221c-1.5-1.5-4-1.3-5.3,0.5l-6.9,9.8
			c-0.1,0.1-0.2,0.3-0.3,0.5c-0.2,0.5-0.9,1.7-1.7,3.5c-1.3,2.6-4.9,2.6-6.2,0.1l-0.1-0.3c-1.8-3.4-1.5-7.5,0.5-10.7l9.4-14.3
			c2.9-4.4,8.5-6,13.2-3.8c7.3,3.3,13.6,8.3,18.5,14.4c4.9,6.1,8.5,13.3,10.2,21.1l10,37.2C295.5,282.6,300.9,322.3,298.2,324.8z"/>
		<path class="st4" d="M178.7,109.7l-2.1,2.9c-4.9,6.7-4.9,14.4-11.6,9.6l-64.1-46.1c-2.5-1.8-5.6-2.8-6.1-1.8L33.1,73
			c-0.2,0-0.3-0.1-0.5-0.1c-2.6-0.4-5-0.1-7.1,0.4c-4.8-0.6-9.5-2.8-12-6c-5-6.5-2.6-15.7,5.1-19.8l1.7-0.9c1.2-0.3,2.4-0.5,3.6-0.5
			l56.8-1.4l16.3-0.4c3.1-0.1,6.1,0.7,8.6,2.4L185,97.3C191.4,101.4,183.1,103.5,178.7,109.7z"/>
	</g>
</g>
</svg>
