<?xml version="1.0" encoding="utf-8"?>
<!-- Generator: Adobe Illustrator 26.0.1, SVG Export Plug-In . SVG Version: 6.00 Build 0)  -->
<svg version="1.1" id="katman_1" xmlns="http://www.w3.org/2000/svg" xmlns:xlink="http://www.w3.org/1999/xlink" x="0px" y="0px"
	 viewBox="0 0 100 100" style="enable-background:new 0 0 100 100;" xml:space="preserve">
<g>
	<path d="M50,90.5c-22.2,0-40.5-18.5-40.5-40.6c0-4.6,0.9-9,2.3-13.3l23.6,46c0.4,0.7,0.7,1.1,1.4,1.1c0.9,0,1.1-0.5,1.4-1.1
		l11-24.5c0.2-0.4,0.4-0.5,0.5-0.5c0.4,0,0.4,0.4,0.5,0.5l11.2,24.5c0.4,0.7,0.7,1.1,1.4,1.1c0.9,0,1.1-0.5,1.4-1.1l23.6-46
		c1.4,4.1,2.3,8.5,2.3,13.3C90.5,72.1,72.2,90.5,50,90.5z M50,39.4c-0.4,0-0.4-0.4-0.5-0.5L36.9,11.6c8.5-3,17.7-3,26.3,0L50.5,38.9
		C50.4,39.1,50.4,39.4,50,39.4z M36.7,69.1c-0.4,0-0.4-0.4-0.5-0.5L15.6,28.8c3.5-5.9,8.9-10.8,14.9-14.4L45,46
		c0.4,0.7,0.7,0.9,1.1,0.9h7.6c0.5,0,0.9-0.2,1.1-0.9l14.5-31.6c6,3.4,11.4,8.3,14.9,14.4L63.8,68.5c-0.2,0.4-0.4,0.5-0.5,0.5
		c-0.4,0-0.4-0.4-0.5-0.5L55,51.2c-0.4-0.7-0.7-0.9-1.1-0.9h-7.6c-0.5,0-0.9,0.2-1.1,0.9l-8,17.4C37,68.7,37,69.1,36.7,69.1z M50,96
		c25.5,0,46-20.6,46-46S75.5,4,50,4S4,24.5,4,49.9S24.6,96,50,96z"/>
</g>
</svg>
